<?xml version="1.0" encoding="utf-8"?>
<!-- Svg Vector Icons : http://www.onlinewebfonts.com/icon -->
<!DOCTYPE svg PUBLIC "-//W3C//DTD SVG 1.1//EN" "http://www.w3.org/Graphics/SVG/1.1/DTD/svg11.dtd">
<svg version="1.1" xmlns="http://www.w3.org/2000/svg" xmlns:xlink="http://www.w3.org/1999/xlink" x="0px" y="0px" viewBox="0 0 1000 1000" enable-background="new 0 0 1000 1000" xml:space="preserve">
<metadata> Svg Vector Icons : http://www.onlinewebfonts.com/icon </metadata>
<g><path fill="#c70101" d="M500,990.3C229.8,990.3,10,770.3,10,500C10,229.7,229.8,9.7,500,9.7c270.2,0,490,219.9,490,490.3C990,770.3,770.2,990.3,500,990.3z M500,93.2C275.8,93.2,93.4,275.7,93.4,500c0,224.3,182.4,406.8,406.6,406.8c224.2,0,406.6-182.5,406.6-406.8C906.6,275.7,724.2,93.2,500,93.2z M683.3,606L540.1,462.5c-22.4-22.4-57.1-22.4-79.5,0L317.5,606c-8.2,8.2-18.9,12.3-29.5,12.3c-10.6,0-21.3-4.1-29.5-12.2c-16.4-16.3-16.4-42.7-0.1-59l143.1-143.5c53.6-53.6,144.2-53.7,197.6,0L742.4,547c16.2,16.3,16.2,42.8-0.1,59C726,622.3,699.5,622.3,683.3,606z"/></g>
</svg>